<svg width="33" height="33" viewBox="0 0 33 33" fill="none" xmlns="http://www.w3.org/2000/svg">
<rect x="0.5" y="0.5" width="32" height="32" rx="16" fill="#D6E4FF"/>
<rect width="16" height="16" transform="translate(8.5 8.5)" fill="white" style="mix-blend-mode:multiply"/>
<path d="M23.5 23.5H22.5V21C22.4992 20.3372 22.2356 19.7017 21.7669 19.2331C21.2983 18.7644 20.6628 18.5008 20 18.5V17.5C20.9279 17.501 21.8176 17.8701 22.4737 18.5263C23.1299 19.1824 23.499 20.0721 23.5 21V23.5Z" fill="#2F54EB"/>
<path d="M19.5 23.5H18.5V21C18.4992 20.3372 18.2356 19.7018 17.7669 19.2331C17.2982 18.7644 16.6628 18.5008 16 18.5H13C12.3372 18.5008 11.7018 18.7644 11.2331 19.2331C10.7644 19.7018 10.5008 20.3372 10.5 21V23.5H9.5V21C9.50109 20.0721 9.87018 19.1825 10.5263 18.5263C11.1825 17.8702 12.0721 17.5011 13 17.5H16C16.9279 17.5011 17.8175 17.8702 18.4737 18.5263C19.1298 19.1825 19.4989 20.0721 19.5 21V23.5Z" fill="#2F54EB"/>
<path d="M18.5 9.5V10.5C19.163 10.5 19.7989 10.7634 20.2678 11.2322C20.7366 11.7011 21 12.337 21 13C21 13.663 20.7366 14.2989 20.2678 14.7678C19.7989 15.2366 19.163 15.5 18.5 15.5V16.5C19.4283 16.5 20.3185 16.1313 20.9749 15.4749C21.6313 14.8185 22 13.9283 22 13C22 12.0717 21.6313 11.1815 20.9749 10.5251C20.3185 9.86875 19.4283 9.5 18.5 9.5Z" fill="#2F54EB"/>
<path d="M14.5 10.5C14.9945 10.5 15.4778 10.6466 15.8889 10.9213C16.3 11.196 16.6205 11.5865 16.8097 12.0433C16.9989 12.5001 17.0484 13.0028 16.952 13.4877C16.8555 13.9727 16.6174 14.4181 16.2678 14.7678C15.9181 15.1174 15.4727 15.3555 14.9877 15.452C14.5028 15.5484 14.0001 15.4989 13.5433 15.3097C13.0865 15.1205 12.696 14.8 12.4213 14.3889C12.1466 13.9778 12 13.4945 12 13C12 12.337 12.2634 11.7011 12.7322 11.2322C13.2011 10.7634 13.837 10.5 14.5 10.5ZM14.5 9.5C13.8078 9.5 13.1311 9.70527 12.5555 10.0899C11.9799 10.4744 11.5313 11.0211 11.2664 11.6606C11.0015 12.3001 10.9322 13.0039 11.0673 13.6828C11.2023 14.3617 11.5356 14.9854 12.0251 15.4749C12.5146 15.9644 13.1383 16.2977 13.8172 16.4327C14.4961 16.5678 15.1999 16.4985 15.8394 16.2336C16.4789 15.9687 17.0256 15.5201 17.4101 14.9445C17.7947 14.3689 18 13.6922 18 13C18 12.0717 17.6313 11.1815 16.9749 10.5251C16.3185 9.86875 15.4283 9.5 14.5 9.5Z" fill="#2F54EB"/>
</svg>
