<svg width="21" height="15" viewBox="0 0 21 15" fill="none" xmlns="http://www.w3.org/2000/svg">
<path d="M9.92977 14.4999H8.06693C7.96335 14.4999 7.86812 14.4459 7.81465 14.3593C6.8707 12.8048 6.40959 11.3321 6.40625 9.8528C6.40625 9.77597 6.43632 9.70242 6.49145 9.64848C6.54659 9.59454 6.62177 9.56348 6.69862 9.56348H8.74858C8.91063 9.56348 9.04262 9.69097 9.04262 9.84952C9.04596 11.3239 9.44192 12.7819 10.1854 14.07C10.2372 14.1582 10.2355 14.2677 10.1837 14.356C10.1319 14.4443 10.035 14.4982 9.92977 14.4982V14.4999ZM8.23567 13.9245H9.44192C8.84381 12.746 8.50799 11.4514 8.46121 10.1388H6.99935C7.05448 11.3844 7.45211 12.5989 8.234 13.9245H8.23567Z" fill="#595959" stroke="#595959" stroke-width="0.32"/>
<path d="M11.2144 10.139H4.48979C3.99192 10.139 3.58594 9.74344 3.58594 9.25471V5.11109C3.58594 4.62399 3.99025 4.22681 4.48979 4.22681H11.2144C11.3764 4.22681 11.5084 4.35594 11.5084 4.51449V9.85131C11.5084 10.0099 11.3764 10.139 11.2144 10.139ZM4.48979 4.80215C4.31604 4.80215 4.17402 4.94109 4.17402 5.11109V9.25471C4.17402 9.42471 4.31604 9.56363 4.48979 9.56363H10.922V4.80215H4.48979Z" fill="#595959" stroke="#595959" stroke-width="0.32"/>
<path d="M18.6035 12.9505C18.5667 12.9505 18.5317 12.9439 18.4966 12.9309L11.107 10.1194C10.9934 10.0769 10.9199 9.97067 10.9199 9.85135V4.51453C10.9199 4.39684 10.9951 4.28896 11.107 4.24646L18.4966 1.43501C18.5868 1.40068 18.6887 1.41213 18.7689 1.46608C18.8491 1.52002 18.8975 1.60827 18.8975 1.70308V12.6644C18.8975 12.7592 18.8491 12.8475 18.7689 12.9014C18.7188 12.9341 18.662 12.9521 18.6035 12.9521V12.9505ZM11.508 9.65521L18.3095 12.2443V2.12317L11.508 4.71231V9.65521Z" fill="#595959" stroke="#595959" stroke-width="0.32"/>
<path d="M3.87983 9.20224H1.40385C0.905982 9.20224 0.5 8.80668 0.5 8.31794V6.04592C0.5 5.55882 0.904311 5.16162 1.40385 5.16162H3.87983C4.04189 5.16162 4.17388 5.29075 4.17388 5.4493V8.91292C4.17388 9.07148 4.04189 9.20061 3.87983 9.20061V9.20224ZM1.40385 5.73862C1.2301 5.73862 1.08809 5.87756 1.08809 6.04756V8.31958C1.08809 8.48957 1.2301 8.62851 1.40385 8.62851H3.58579V5.73862H1.40385Z" fill="#595959" stroke="#595959" stroke-width="0.32"/>
<path d="M19.5375 13.8691H19.2719C18.7406 13.8691 18.3096 13.4473 18.3096 12.9276V1.44151C18.3096 0.921718 18.7406 0.5 19.2719 0.5H19.5375C20.0688 0.5 20.4999 0.921718 20.4999 1.44151V12.9276C20.4999 13.4473 20.0671 13.8691 19.5375 13.8691ZM19.2719 1.07373C19.0647 1.07373 18.896 1.23882 18.896 1.44151V12.9276C18.896 13.1302 19.0647 13.2953 19.2719 13.2953H19.5375C19.7447 13.2953 19.9134 13.1302 19.9134 12.9276V1.44151C19.9134 1.23882 19.7447 1.07373 19.5375 1.07373H19.2719Z" fill="#595959" stroke="#595959" stroke-width="0.32"/>
</svg>
