<svg width="24" height="24" viewBox="0 0 24 24" fill="none" xmlns="http://www.w3.org/2000/svg">
<path d="M15.0898 7.47266H19.3366V8.74669H20.186V10.4454H19.3366V12.9935" stroke="#595959" stroke-width="0.8" stroke-miterlimit="10"/>
<path d="M18.4873 4.5V7.47274" stroke="#595959" stroke-width="0.8" stroke-miterlimit="10"/>
<path d="M16.7881 6.19873V7.47276" stroke="#595959" stroke-width="0.8" stroke-miterlimit="10"/>
<path d="M12.1169 9.59619H7.87012V12.1443" stroke="#595959" stroke-width="0.8" stroke-miterlimit="10"/>
<path d="M16.364 12.9936V9.59619H12.1172V12.9936" stroke="#595959" stroke-width="0.8" stroke-miterlimit="10"/>
<path d="M7.86982 9.59619H3.62305V12.1443" stroke="#595959" stroke-width="0.8" stroke-miterlimit="10"/>
<path d="M14.2399 9.59603V6.62329H9.99316" stroke="#595959" stroke-width="0.8" stroke-miterlimit="10"/>
<path d="M9.99384 9.59603V6.62329H5.74707V9.59603" stroke="#595959" stroke-width="0.8" stroke-miterlimit="10"/>
<path d="M4.73604 17.147C4.73604 14.7093 1.5 14.6924 1.5 12.1443H9.09323L11.085 12.9936H20.1858V15.5077C20.1858 16.132 20.1518 16.5312 19.9522 16.837" stroke="#595959" stroke-width="0.8" stroke-miterlimit="10"/>
<path d="M3.89453 17.7752L5.29596 16.6753C5.61022 16.429 6.02215 16.4587 6.31093 16.7475L6.83329 17.2741C7.12632 17.5714 7.54675 17.5926 7.86525 17.3335L8.65516 16.6838C8.96518 16.429 9.37287 16.446 9.66589 16.7262L10.2647 17.2953C10.5662 17.5798 10.9824 17.5883 11.2924 17.3208L12.0101 16.7008C12.3116 16.4375 12.7193 16.4417 13.0208 16.7093L13.6918 17.3123C13.9976 17.5841 14.418 17.5841 14.7196 17.3038L15.3651 16.7135C15.6623 16.4417 16.07 16.4332 16.3758 16.6923L17.119 17.325C17.429 17.5883 17.8494 17.5756 18.1467 17.2868L18.7158 16.7347C19.0088 16.4502 19.4165 16.429 19.7265 16.6795L21.0812 17.7709" stroke="#595959" stroke-width="0.8" stroke-miterlimit="10"/>
<path d="M1.5 19.8183L1.86522 19.5295C2.17948 19.2832 2.59142 19.3129 2.8802 19.6017L3.40256 20.1283C3.69559 20.4256 4.11601 20.4468 4.43452 20.1878L5.22442 19.538C5.53443 19.2832 5.94212 19.3002 6.23515 19.5805L6.83395 20.1496C7.13547 20.4341 7.55166 20.4426 7.86167 20.175L8.57938 19.555C8.8809 19.2917 9.28858 19.296 9.5901 19.5635L10.2611 20.1665C10.5669 20.4383 10.9873 20.4383 11.2888 20.1581L11.9343 19.5678C12.2316 19.296 12.6393 19.2875 12.9451 19.5465L13.6882 20.1793C13.9983 20.4426 14.4187 20.4298 14.716 20.1411L15.285 19.589C15.5781 19.3045 15.9857 19.2832 16.2958 19.5338L17.6505 20.6252" stroke="#595959" stroke-width="0.8" stroke-miterlimit="10"/>
<path d="M7.87012 13.843H8.71947" stroke="#595959" stroke-width="0.8" stroke-miterlimit="10"/>
</svg>
