<svg width="32" height="32" viewBox="0 0 32 32" fill="none" xmlns="http://www.w3.org/2000/svg">
<circle cx="16" cy="16" r="16" fill="#2F54EB"/>
<g clip-path="url(#clip0_2734_42599)">
<path d="M10.2912 17.8299L11.4014 17.189C11.4615 17.1543 11.5321 17.1422 11.6003 17.155L13.7848 17.5638C13.9643 17.5974 14.13 17.4592 14.1292 17.2766L14.1207 15.3626C14.1205 15.3106 14.1342 15.2595 14.1604 15.2146L15.2628 13.3273C15.3202 13.229 15.315 13.1064 15.2496 13.0133L13.3935 10.3713M19.7826 11.5544C16.5826 13.091 18.328 15.1273 18.9099 15.4182C20.002 15.9642 21.5208 16 21.5208 16C21.5255 15.9036 21.528 15.8067 21.528 15.7091C21.528 12.4958 18.9231 9.89093 15.7098 9.89093C12.4965 9.89093 9.8916 12.4958 9.8916 15.7091C9.8916 18.9224 12.4965 21.5273 15.7098 21.5273C15.8073 21.5273 15.9043 21.5249 16.0007 21.5201M18.4779 21.4923L16.6355 16.6348L21.4929 18.4773L19.339 19.3383L18.4779 21.4923Z" stroke="#F0F5FF" stroke-width="2" stroke-linecap="round" stroke-linejoin="round"/>
</g>
<defs>
<clipPath id="clip0_2734_42599">
<rect width="13.9636" height="13.9636" fill="white" transform="translate(8.72754 8.72729)"/>
</clipPath>
</defs>
</svg>
