<svg width="24" height="24" viewBox="0 0 24 24" fill="none" xmlns="http://www.w3.org/2000/svg">
<rect width="24" height="24" fill="white" style="mix-blend-mode:multiply"/>
<path d="M18.4286 15.2143H17.1429V18.4286H18.4286V15.2143Z" fill="#595959"/>
<path d="M15.8571 12H14.5714V18.4286H15.8571V12Z" fill="#595959"/>
<path d="M8.78571 18.4286C7.93354 18.4276 7.11656 18.0886 6.51398 17.486C5.9114 16.8834 5.57243 16.0665 5.57143 15.2143H6.85714C6.85714 15.5957 6.97025 15.9686 7.18217 16.2857C7.39408 16.6029 7.69528 16.8501 8.04768 16.9961C8.40008 17.142 8.78785 17.1802 9.16196 17.1058C9.53607 17.0314 9.8797 16.8477 10.1494 16.578C10.4191 16.3083 10.6028 15.9646 10.6772 15.5905C10.7516 15.2164 10.7135 14.8287 10.5675 14.4763C10.4215 14.1239 10.1743 13.8227 9.85717 13.6107C9.54002 13.3988 9.16715 13.2857 8.78571 13.2857V12C9.6382 12 10.4558 12.3386 11.0586 12.9414C11.6614 13.5442 12 14.3618 12 15.2143C12 16.0668 11.6614 16.8843 11.0586 17.4871C10.4558 18.0899 9.6382 18.4286 8.78571 18.4286Z" fill="#595959"/>
<path d="M19.7143 3H4.28571C3.94483 3.00034 3.618 3.13591 3.37695 3.37695C3.13591 3.618 3.00034 3.94483 3 4.28571V19.7143C3.00039 20.0552 3.13598 20.382 3.37701 20.623C3.61804 20.864 3.94484 20.9996 4.28571 21H19.7143C20.0551 20.9995 20.3819 20.8639 20.6229 20.6229C20.8639 20.3819 20.9995 20.0551 21 19.7143V4.28571C20.9996 3.94484 20.864 3.61804 20.623 3.37701C20.382 3.13598 20.0552 3.00039 19.7143 3ZM19.7143 8.78571H10.7143V4.28571H19.7143V8.78571ZM9.42857 4.28571V8.78571H4.28571V4.28571H9.42857ZM4.28571 19.7143V10.0714H19.7147L19.7156 19.7143H4.28571Z" fill="#595959"/>
</svg>
