<svg width="24" height="24" viewBox="0 0 24 24" fill="none" xmlns="http://www.w3.org/2000/svg">
<path d="M15.2793 11.33C15.201 11.33 15.1243 11.2983 15.066 11.2383C14.9543 11.12 14.961 10.935 15.0776 10.8233L19.6576 6.51167C19.776 6.40001 19.961 6.40667 20.0726 6.525C20.1843 6.64333 20.1776 6.82833 20.061 6.94L15.481 11.2517C15.4243 11.305 15.3526 11.3317 15.281 11.3317L15.2793 11.33Z" fill="#595959"/>
<path d="M13.6093 11.5917C13.5576 11.5917 13.5043 11.5783 13.4577 11.5483L9.49766 9.13167C9.35932 9.04668 9.31598 8.86667 9.40098 8.72833C9.48598 8.59 9.66597 8.54668 9.8043 8.63168L13.7643 11.0483C13.9026 11.1333 13.946 11.3133 13.861 11.4517C13.806 11.5417 13.7093 11.5917 13.611 11.5917H13.6093Z" fill="#595959"/>
<path d="M4.29262 13.18C4.21929 13.18 4.14592 13.1517 4.08925 13.0967C3.97259 12.9833 3.97095 12.7983 4.08262 12.6817L7.87758 8.77332C7.99092 8.65666 8.17596 8.655 8.29262 8.76667C8.40929 8.88 8.41092 9.065 8.29925 9.18167L4.50425 13.09C4.44759 13.1483 4.37092 13.1783 4.29425 13.1783L4.29262 13.18Z" fill="#595959"/>
<path d="M3.60097 14.8367C3.58097 14.8367 3.56266 14.8367 3.54266 14.8367C2.84433 14.805 2.30266 14.2117 2.33433 13.515C2.34933 13.1767 2.49599 12.865 2.74432 12.6367C2.99432 12.4083 3.31765 12.2917 3.65598 12.3067C4.35432 12.3383 4.89598 12.9317 4.86432 13.6283C4.84932 13.9667 4.70266 14.2783 4.45432 14.5067C4.21932 14.7217 3.91764 14.8383 3.60097 14.8383V14.8367ZM3.5993 12.89C3.4293 12.89 3.26764 12.9533 3.14097 13.0683C3.00597 13.1917 2.92762 13.3583 2.92096 13.54C2.90429 13.915 3.19598 14.2333 3.57098 14.25C3.75265 14.2583 3.92597 14.195 4.06097 14.0733C4.19597 13.95 4.27432 13.7834 4.28098 13.6017C4.29765 13.2267 4.00596 12.9083 3.63096 12.8917C3.62096 12.8917 3.6093 12.8917 3.5993 12.8917V12.89Z" fill="#595959"/>
<path d="M8.77765 9.55835C8.75765 9.55835 8.7393 9.55835 8.7193 9.55835C8.02096 9.52668 7.4793 8.93334 7.51096 8.23668C7.52596 7.89834 7.67262 7.58667 7.92096 7.35834C8.17096 7.13001 8.49599 7.01334 8.83266 7.02834C9.17099 7.04334 9.48262 7.19 9.71095 7.43834C9.93929 7.68834 10.056 8.01169 10.041 8.35002C10.026 8.68835 9.87929 9 9.63096 9.22833C9.39596 9.44333 9.09431 9.56002 8.77765 9.56002V9.55835ZM8.77598 7.61168C8.60598 7.61168 8.44431 7.675 8.31764 7.79C8.18264 7.91333 8.1043 8.08001 8.09763 8.26168C8.08097 8.63668 8.37266 8.95501 8.74766 8.97168C8.92932 8.98001 9.10265 8.91667 9.23765 8.795C9.37265 8.67167 9.45099 8.50501 9.45766 8.32335C9.46599 8.14168 9.40265 7.96834 9.28098 7.83334C9.15765 7.7 8.99097 7.62001 8.8093 7.61334C8.7993 7.61334 8.78765 7.61334 8.77765 7.61334L8.77598 7.61168Z" fill="#595959"/>
<path d="M14.561 13.0783C14.541 13.0783 14.5226 13.0783 14.5026 13.0783C13.8043 13.0467 13.2626 12.4533 13.2943 11.7567C13.3093 11.4183 13.456 11.1067 13.7043 10.8783C13.9543 10.65 14.2777 10.5333 14.616 10.5483C15.3143 10.58 15.856 11.1733 15.8243 11.87C15.8093 12.2083 15.6627 12.52 15.4143 12.7483C15.1793 12.9633 14.8776 13.08 14.561 13.08V13.0783ZM14.5593 11.1317C14.3893 11.1317 14.2276 11.195 14.101 11.31C13.966 11.4334 13.8876 11.6 13.881 11.7817C13.8643 12.1567 14.156 12.475 14.531 12.4917C14.711 12.5 14.886 12.4367 15.021 12.315C15.156 12.1917 15.2343 12.025 15.241 11.8433C15.2576 11.4683 14.966 11.15 14.591 11.1333C14.581 11.1333 14.5693 11.1333 14.5593 11.1333V11.1317Z" fill="#595959"/>
<path d="M20.5876 7.21668C20.5676 7.21668 20.5493 7.21668 20.5293 7.21668C20.1909 7.20168 19.8793 7.05502 19.6509 6.80668C19.4226 6.55668 19.3059 6.23333 19.3209 5.895C19.3359 5.55667 19.4826 5.24502 19.7309 5.01669C19.9809 4.78835 20.3059 4.67167 20.6426 4.68667C21.3409 4.71834 21.8826 5.31168 21.8509 6.00834C21.8359 6.34668 21.6893 6.65835 21.4409 6.88668C21.2059 7.10168 20.9043 7.21834 20.5876 7.21834V7.21668ZM20.5859 5.27C20.4159 5.27 20.2543 5.33335 20.1276 5.44835C19.9926 5.57168 19.9143 5.73834 19.9076 5.92001C19.8993 6.10167 19.9626 6.27502 20.0843 6.41002C20.2076 6.54502 20.3743 6.62334 20.5559 6.63001C20.7359 6.63834 20.9109 6.57502 21.0459 6.45335C21.1809 6.33002 21.2593 6.16334 21.2659 5.98167C21.2826 5.60667 20.9909 5.28834 20.6159 5.27167C20.6059 5.27167 20.5943 5.27167 20.5843 5.27167L20.5859 5.27Z" fill="#595959"/>
<path d="M11.5793 16.5167C8.12764 16.5167 5.32096 13.7083 5.32096 10.2583C5.32096 6.80834 8.12764 4 11.5793 4C15.031 4 17.8376 6.80667 17.8376 10.2583C17.8376 13.71 15.031 16.5167 11.5793 16.5167ZM11.5793 4.58667C8.45097 4.58667 5.90763 7.13167 5.90763 10.2583C5.90763 13.385 8.45264 15.93 11.5793 15.93C14.706 15.93 17.251 13.385 17.251 10.2583C17.251 7.13167 14.706 4.58667 11.5793 4.58667Z" fill="#595959"/>
<path d="M20.121 19.995C19.8176 19.995 19.516 19.88 19.286 19.65L14.9076 15.2717C14.7926 15.1567 14.7926 14.9717 14.9076 14.8567C15.0226 14.7417 15.2076 14.7417 15.3226 14.8567L19.701 19.235C19.9343 19.4683 20.3159 19.4683 20.5493 19.235C20.7909 18.9933 20.7909 18.6133 20.5576 18.38L16.371 14.1933C16.256 14.0783 16.256 13.8933 16.371 13.7783C16.486 13.6633 16.671 13.6633 16.786 13.7783L20.9726 17.965C21.4343 18.4267 21.4343 19.18 20.9726 19.6417C20.7359 19.8784 20.4293 19.995 20.1243 19.995H20.121Z" fill="#595959"/>
<path d="M15.2793 11.33C15.201 11.33 15.1243 11.2983 15.066 11.2383C14.9543 11.12 14.961 10.935 15.0776 10.8233L19.6576 6.51167C19.776 6.40001 19.961 6.40667 20.0726 6.525C20.1843 6.64333 20.1776 6.82833 20.061 6.94L15.481 11.2517C15.4243 11.305 15.3526 11.3317 15.281 11.3317L15.2793 11.33Z" stroke="#595959" stroke-width="0.4"/>
<path d="M13.6093 11.5917C13.5576 11.5917 13.5043 11.5783 13.4577 11.5483L9.49766 9.13167C9.35932 9.04668 9.31598 8.86667 9.40098 8.72833C9.48598 8.59 9.66597 8.54668 9.8043 8.63168L13.7643 11.0483C13.9026 11.1333 13.946 11.3133 13.861 11.4517C13.806 11.5417 13.7093 11.5917 13.611 11.5917H13.6093Z" stroke="#595959" stroke-width="0.4"/>
<path d="M4.29262 13.18C4.21929 13.18 4.14592 13.1517 4.08925 13.0967C3.97259 12.9833 3.97095 12.7983 4.08262 12.6817L7.87758 8.77332C7.99092 8.65666 8.17596 8.655 8.29262 8.76667C8.40929 8.88 8.41092 9.065 8.29925 9.18167L4.50425 13.09C4.44759 13.1483 4.37092 13.1783 4.29425 13.1783L4.29262 13.18Z" stroke="#595959" stroke-width="0.4"/>
<path d="M3.60097 14.8367C3.58097 14.8367 3.56266 14.8367 3.54266 14.8367C2.84433 14.805 2.30266 14.2117 2.33433 13.515C2.34933 13.1767 2.49599 12.865 2.74432 12.6367C2.99432 12.4083 3.31765 12.2917 3.65598 12.3067C4.35432 12.3383 4.89598 12.9317 4.86432 13.6283C4.84932 13.9667 4.70266 14.2783 4.45432 14.5067C4.21932 14.7217 3.91764 14.8383 3.60097 14.8383V14.8367ZM3.5993 12.89C3.4293 12.89 3.26764 12.9533 3.14097 13.0683C3.00597 13.1917 2.92762 13.3583 2.92096 13.54C2.90429 13.915 3.19598 14.2333 3.57098 14.25C3.75265 14.2583 3.92597 14.195 4.06097 14.0733C4.19597 13.95 4.27432 13.7834 4.28098 13.6017C4.29765 13.2267 4.00596 12.9083 3.63096 12.8917C3.62096 12.8917 3.6093 12.8917 3.5993 12.8917V12.89Z" stroke="#595959" stroke-width="0.4"/>
<path d="M8.77765 9.55835C8.75765 9.55835 8.7393 9.55835 8.7193 9.55835C8.02096 9.52668 7.4793 8.93334 7.51096 8.23668C7.52596 7.89834 7.67262 7.58667 7.92096 7.35834C8.17096 7.13001 8.49599 7.01334 8.83266 7.02834C9.17099 7.04334 9.48262 7.19 9.71095 7.43834C9.93929 7.68834 10.056 8.01169 10.041 8.35002C10.026 8.68835 9.87929 9 9.63096 9.22833C9.39596 9.44333 9.09431 9.56002 8.77765 9.56002V9.55835ZM8.77598 7.61168C8.60598 7.61168 8.44431 7.675 8.31764 7.79C8.18264 7.91333 8.1043 8.08001 8.09763 8.26168C8.08097 8.63668 8.37266 8.95501 8.74766 8.97168C8.92932 8.98001 9.10265 8.91667 9.23765 8.795C9.37265 8.67167 9.45099 8.50501 9.45766 8.32335C9.46599 8.14168 9.40265 7.96834 9.28098 7.83334C9.15765 7.7 8.99097 7.62001 8.8093 7.61334C8.7993 7.61334 8.78765 7.61334 8.77765 7.61334L8.77598 7.61168Z" stroke="#595959" stroke-width="0.4"/>
<path d="M14.561 13.0783C14.541 13.0783 14.5226 13.0783 14.5026 13.0783C13.8043 13.0467 13.2626 12.4533 13.2943 11.7567C13.3093 11.4183 13.456 11.1067 13.7043 10.8783C13.9543 10.65 14.2777 10.5333 14.616 10.5483C15.3143 10.58 15.856 11.1733 15.8243 11.87C15.8093 12.2083 15.6627 12.52 15.4143 12.7483C15.1793 12.9633 14.8776 13.08 14.561 13.08V13.0783ZM14.5593 11.1317C14.3893 11.1317 14.2276 11.195 14.101 11.31C13.966 11.4334 13.8876 11.6 13.881 11.7817C13.8643 12.1567 14.156 12.475 14.531 12.4917C14.711 12.5 14.886 12.4367 15.021 12.315C15.156 12.1917 15.2343 12.025 15.241 11.8433C15.2576 11.4683 14.966 11.15 14.591 11.1333C14.581 11.1333 14.5693 11.1333 14.5593 11.1333V11.1317Z" stroke="#595959" stroke-width="0.4"/>
<path d="M20.5876 7.21668C20.5676 7.21668 20.5493 7.21668 20.5293 7.21668C20.1909 7.20168 19.8793 7.05502 19.6509 6.80668C19.4226 6.55668 19.3059 6.23333 19.3209 5.895C19.3359 5.55667 19.4826 5.24502 19.7309 5.01669C19.9809 4.78835 20.3059 4.67167 20.6426 4.68667C21.3409 4.71834 21.8826 5.31168 21.8509 6.00834C21.8359 6.34668 21.6893 6.65835 21.4409 6.88668C21.2059 7.10168 20.9043 7.21834 20.5876 7.21834V7.21668ZM20.5859 5.27C20.4159 5.27 20.2543 5.33335 20.1276 5.44835C19.9926 5.57168 19.9143 5.73834 19.9076 5.92001C19.8993 6.10167 19.9626 6.27502 20.0843 6.41002C20.2076 6.54502 20.3743 6.62334 20.5559 6.63001C20.7359 6.63834 20.9109 6.57502 21.0459 6.45335C21.1809 6.33002 21.2593 6.16334 21.2659 5.98167C21.2826 5.60667 20.9909 5.28834 20.6159 5.27167C20.6059 5.27167 20.5943 5.27167 20.5843 5.27167L20.5859 5.27Z" stroke="#595959" stroke-width="0.4"/>
<path d="M11.5793 16.5167C8.12764 16.5167 5.32096 13.7083 5.32096 10.2583C5.32096 6.80834 8.12764 4 11.5793 4C15.031 4 17.8376 6.80667 17.8376 10.2583C17.8376 13.71 15.031 16.5167 11.5793 16.5167ZM11.5793 4.58667C8.45097 4.58667 5.90763 7.13167 5.90763 10.2583C5.90763 13.385 8.45264 15.93 11.5793 15.93C14.706 15.93 17.251 13.385 17.251 10.2583C17.251 7.13167 14.706 4.58667 11.5793 4.58667Z" stroke="#595959" stroke-width="0.4"/>
<path d="M20.121 19.995C19.8176 19.995 19.516 19.88 19.286 19.65L14.9076 15.2717C14.7926 15.1567 14.7926 14.9717 14.9076 14.8567C15.0226 14.7417 15.2076 14.7417 15.3226 14.8567L19.701 19.235C19.9343 19.4683 20.3159 19.4683 20.5493 19.235C20.7909 18.9933 20.7909 18.6133 20.5576 18.38L16.371 14.1933C16.256 14.0783 16.256 13.8933 16.371 13.7783C16.486 13.6633 16.671 13.6633 16.786 13.7783L20.9726 17.965C21.4343 18.4267 21.4343 19.18 20.9726 19.6417C20.7359 19.8784 20.4293 19.995 20.1243 19.995H20.121Z" stroke="#595959" stroke-width="0.4"/>
</svg>
