<svg width="33" height="33" viewBox="0 0 33 33" fill="none" xmlns="http://www.w3.org/2000/svg">
<rect x="0.5" y="0.5" width="32" height="32" rx="16" fill="#D6E4FF"/>
<path d="M16.497 24.4985C16.1211 24.4985 15.7675 24.3523 15.5019 24.0867C15.2363 23.8212 14.8693 23.757 14.5365 23.8958C13.8204 24.1956 12.9939 23.8555 12.6955 23.1393L12.6835 23.1095C12.5463 22.7798 12.2255 22.5664 11.8689 22.5664H11.8376C11.0617 22.5664 10.4292 21.9353 10.4292 21.158C10.4292 20.7984 10.2143 20.4776 9.88161 20.3404C9.53398 20.1971 9.26242 19.9271 9.1177 19.5809C8.97298 19.2333 8.97148 18.8514 9.11471 18.5037L9.12666 18.4739C9.26243 18.1427 9.18633 17.7667 8.93419 17.5146L8.91182 17.4922C8.64625 17.2266 8.5 16.873 8.5 16.497C8.5 16.1211 8.64625 15.7674 8.91182 15.5019C9.16546 15.2482 9.24152 14.8693 9.10277 14.5366C8.80288 13.8204 9.1431 12.9938 9.85925 12.6954L9.88904 12.6835C10.2188 12.5463 10.4321 12.2255 10.4321 11.8689V11.8376C10.4321 11.0617 11.0632 10.4291 11.8406 10.4291C12.2001 10.4291 12.5209 10.2143 12.6582 9.88158C12.8014 9.53394 13.0714 9.2624 13.4176 9.11768C13.7652 8.97296 14.1472 8.97147 14.4948 9.1147L14.5247 9.12664C14.8544 9.26241 15.2318 9.18632 15.484 8.93417L15.5063 8.91179C15.7719 8.64622 16.1256 8.5 16.5015 8.5C16.8775 8.5 17.2311 8.64622 17.4967 8.91179C17.7503 9.16542 18.1292 9.24152 18.462 9.10277C19.1781 8.80288 20.0047 9.14304 20.3031 9.85919L20.315 9.88904C20.4522 10.2188 20.773 10.4321 21.1296 10.4321H21.161C21.9368 10.4321 22.5694 11.0632 22.5694 11.8405C22.5694 12.2001 22.7843 12.5209 23.117 12.6581C23.8346 12.9536 24.1792 13.7771 23.8853 14.4948L23.8734 14.5246C23.7376 14.8558 23.8137 15.2318 24.0658 15.484L24.0882 15.5064C24.3538 15.7719 24.5 16.1255 24.5 16.5015C24.5 16.8775 24.3538 17.2311 24.0882 17.4967C23.8346 17.7503 23.7585 18.1292 23.8973 18.462C24.1972 19.1781 23.857 20.0047 23.1409 20.3031L23.111 20.315C22.7813 20.4523 22.5679 20.773 22.5679 21.1296V21.1609C22.5679 21.9368 21.9368 22.5694 21.1595 22.5694C20.7999 22.5694 20.4791 22.7842 20.3419 23.1169C20.0465 23.8346 19.2229 24.1792 18.5052 23.8853L18.4754 23.8734C18.1457 23.7376 17.7682 23.8137 17.5161 24.0658L17.4937 24.0882C17.2281 24.3538 16.8745 24.5 16.4986 24.5L16.497 24.4985ZM14.8782 23.302C15.2438 23.302 15.6019 23.4452 15.8719 23.7152C16.039 23.8823 16.2598 23.9733 16.497 23.9733C16.7343 23.9733 16.9551 23.8808 17.1222 23.7152L17.1445 23.6929C17.5474 23.29 18.1472 23.1692 18.6753 23.3855L18.7051 23.3974C19.1557 23.5824 19.6735 23.3661 19.857 22.9155C20.0748 22.3844 20.5866 22.0427 21.1595 22.0427C21.6459 22.0427 22.0427 21.6459 22.0427 21.1595V21.1281C22.0427 20.5582 22.3829 20.0494 22.9081 19.8286L22.9379 19.8167C23.1557 19.7257 23.3243 19.5556 23.4138 19.3378C23.5034 19.1199 23.5034 18.8797 23.4124 18.6619C23.1916 18.1322 23.3109 17.5295 23.7152 17.1237C23.8823 16.9566 23.9733 16.7357 23.9733 16.4985C23.9733 16.2613 23.8808 16.0405 23.7152 15.8734L23.6929 15.851C23.29 15.4482 23.1692 14.8484 23.3855 14.3202L23.3974 14.2904C23.5824 13.8398 23.3661 13.3221 22.9155 13.1386C22.3844 12.9208 22.0427 12.409 22.0427 11.8361C22.0427 11.3497 21.6459 10.9528 21.1595 10.9528H21.1281C20.5582 10.9528 20.0494 10.6126 19.8286 10.0875L19.8167 10.0576C19.7257 9.83981 19.5556 9.6712 19.3378 9.58169C19.1199 9.49217 18.8798 9.49366 18.6619 9.58318C18.1323 9.80399 17.5295 9.68465 17.1237 9.28032C16.9566 9.11322 16.7358 9.02219 16.4986 9.02219C16.2613 9.02219 16.0405 9.11471 15.8734 9.28032L15.851 9.30269C15.4482 9.70552 14.8484 9.82638 14.3203 9.61004L14.2904 9.5981C14.0726 9.50858 13.8324 9.50858 13.6146 9.59959C13.3967 9.6906 13.2281 9.8607 13.1386 10.0785C12.9208 10.6097 12.409 10.9513 11.8361 10.9513C11.3497 10.9513 10.9528 11.3482 10.9528 11.8346V11.8659C10.9528 12.4359 10.6127 12.9446 10.0875 13.1654L10.0576 13.1774C9.60853 13.3654 9.39523 13.8831 9.58322 14.3322C9.80403 14.8618 9.68463 15.4646 9.2803 15.8704C9.1132 16.0375 9.02219 16.2583 9.02219 16.4955C9.02219 16.7328 9.11469 16.9536 9.2803 17.1207L9.30274 17.1431C9.70558 17.5459 9.82636 18.1457 9.61002 18.6723L9.59815 18.7022C9.50863 18.92 9.5086 19.1602 9.59961 19.378C9.69062 19.5959 9.8607 19.7645 10.0785 19.854C10.6097 20.0718 10.9514 20.5836 10.9514 21.1565C10.9514 21.6429 11.3482 22.0397 11.8346 22.0397H11.8659C12.4359 22.0397 12.9446 22.3799 13.1654 22.9051L13.1774 22.9349C13.2684 23.1527 13.4385 23.3213 13.6563 23.4109C13.8741 23.5004 14.1144 23.5004 14.3322 23.4094C14.5083 23.3363 14.6932 23.299 14.8768 23.299L14.8782 23.302Z" fill="#2F54EB"/>
<path d="M14.3527 15.7867C13.5784 15.7867 12.9473 15.1571 12.9473 14.3813C12.9473 13.6055 13.5769 12.9758 14.3527 12.9758C15.1285 12.9758 15.7581 13.6055 15.7581 14.3813C15.7581 15.1571 15.1285 15.7867 14.3527 15.7867ZM14.3527 13.501C13.8678 13.501 13.4724 13.8964 13.4724 14.3813C13.4724 14.8662 13.8678 15.2616 14.3527 15.2616C14.8376 15.2616 15.233 14.8662 15.233 14.3813C15.233 13.8964 14.8376 13.501 14.3527 13.501Z" fill="#2F54EB"/>
<path d="M18.6437 20.0778C17.8694 20.0778 17.2383 19.4481 17.2383 18.6723C17.2383 17.8965 17.8679 17.2668 18.6437 17.2668C19.4195 17.2668 20.0491 17.8965 20.0491 18.6723C20.0491 19.4481 19.4195 20.0778 18.6437 20.0778ZM18.6437 17.792C18.1588 17.792 17.7635 18.1874 17.7635 18.6723C17.7635 19.1572 18.1588 19.5526 18.6437 19.5526C19.1286 19.5526 19.524 19.1572 19.524 18.6723C19.524 18.1874 19.1286 17.792 18.6437 17.792Z" fill="#2F54EB"/>
<path d="M13.9399 20.4596C13.8892 20.4596 13.8369 20.4447 13.7922 20.4134C13.6728 20.3313 13.6415 20.1687 13.7236 20.0493L18.7814 12.6506C18.8634 12.5312 19.0261 12.4999 19.1455 12.5819C19.2648 12.664 19.2961 12.8266 19.2141 12.946L14.1562 20.3447C14.1055 20.4193 14.0235 20.4596 13.9399 20.4596Z" fill="#2F54EB"/>
</svg>
