<svg width="24" height="24" viewBox="0 0 24 24" fill="none" xmlns="http://www.w3.org/2000/svg">
<path d="M8.944 16.2674C8.78233 16.2674 8.65066 16.1358 8.65066 15.9741V13.6941C8.65066 12.9624 8.05567 12.3674 7.324 12.3674H3.24732C2.51565 12.3674 1.92066 12.9624 1.92066 13.6941V15.9741C1.92066 16.1358 1.78899 16.2674 1.62732 16.2674C1.46565 16.2674 1.33398 16.1358 1.33398 15.9741V13.6941C1.33398 12.6391 2.19232 11.7808 3.24732 11.7808H7.324C8.379 11.7808 9.23733 12.6391 9.23733 13.6941V15.9741C9.23733 16.1358 9.10567 16.2674 8.944 16.2674Z" fill="#595959" stroke="#595959" stroke-width="0.3"/>
<path d="M5.28569 11.264C4.36902 11.264 3.62402 10.519 3.62402 9.60234C3.62402 8.68567 4.36902 7.94067 5.28569 7.94067C6.20236 7.94067 6.94736 8.68567 6.94736 9.60234C6.94736 10.519 6.20236 11.264 5.28569 11.264ZM5.28569 8.52734C4.69236 8.52734 4.2107 9.009 4.2107 9.60234C4.2107 10.1957 4.69236 10.6773 5.28569 10.6773C5.87903 10.6773 6.36069 10.1957 6.36069 9.60234C6.36069 9.009 5.87736 8.52734 5.28569 8.52734Z" fill="#595959" stroke="#595959" stroke-width="0.3"/>
<path d="M3.14197 16.2673C2.9803 16.2673 2.84863 16.1356 2.84863 15.974V13.944C2.84863 13.7823 2.9803 13.6506 3.14197 13.6506C3.30364 13.6506 3.4353 13.7823 3.4353 13.944V15.974C3.4353 16.1356 3.30364 16.2673 3.14197 16.2673Z" fill="#595959" stroke="#595959" stroke-width="0.3"/>
<path d="M7.42713 16.2673C7.26546 16.2673 7.13379 16.1356 7.13379 15.974V13.944C7.13379 13.7823 7.26546 13.6506 7.42713 13.6506C7.58879 13.6506 7.72042 13.7823 7.72042 13.944V15.974C7.72042 16.1356 7.58879 16.2673 7.42713 16.2673Z" fill="#595959" stroke="#595959" stroke-width="0.3"/>
<path d="M22.3727 16.2674C22.2111 16.2674 22.0794 16.1358 22.0794 15.9741V13.6941C22.0794 12.9624 21.4844 12.3674 20.7527 12.3674H16.6761C15.9444 12.3674 15.3494 12.9624 15.3494 13.6941V15.9741C15.3494 16.1358 15.2177 16.2674 15.056 16.2674C14.8944 16.2674 14.7627 16.1358 14.7627 15.9741V13.6941C14.7627 12.6391 15.6211 11.7808 16.6761 11.7808H20.7527C21.8077 11.7808 22.666 12.6391 22.666 13.6941V15.9741C22.666 16.1358 22.5344 16.2674 22.3727 16.2674Z" fill="#595959" stroke="#595959" stroke-width="0.3"/>
<path d="M18.7144 11.264C17.7977 11.264 17.0527 10.519 17.0527 9.60234C17.0527 8.68567 17.7977 7.94067 18.7144 7.94067C19.6311 7.94067 20.3761 8.68567 20.3761 9.60234C20.3761 10.519 19.6311 11.264 18.7144 11.264ZM18.7144 8.52734C18.1211 8.52734 17.6394 9.009 17.6394 9.60234C17.6394 10.1957 18.1211 10.6773 18.7144 10.6773C19.3077 10.6773 19.7894 10.1957 19.7894 9.60234C19.7894 9.009 19.3077 8.52734 18.7144 8.52734Z" fill="#595959" stroke="#595959" stroke-width="0.3"/>
<path d="M16.5726 16.2673C16.411 16.2673 16.2793 16.1356 16.2793 15.974V13.944C16.2793 13.7823 16.411 13.6506 16.5726 13.6506C16.7343 13.6506 16.866 13.7823 16.866 13.944V15.974C16.866 16.1356 16.7343 16.2673 16.5726 16.2673Z" fill="#595959" stroke="#595959" stroke-width="0.3"/>
<path d="M20.8578 16.2673C20.6962 16.2673 20.5645 16.1356 20.5645 15.974V13.944C20.5645 13.7823 20.6962 13.6506 20.8578 13.6506C21.0195 13.6506 21.1511 13.7823 21.1511 13.944V15.974C21.1511 16.1356 21.0195 16.2673 20.8578 16.2673Z" fill="#595959" stroke="#595959" stroke-width="0.3"/>
<path d="M7.21762 6.33909C7.13762 6.33909 7.05594 6.30576 6.99927 6.24076C6.89094 6.12076 6.90259 5.9341 7.02259 5.82743C8.41926 4.58077 10.221 3.89575 12.0943 3.89575C13.9676 3.89575 15.7693 4.58243 17.166 5.82743C17.286 5.93577 17.2976 6.12076 17.1893 6.24076C17.081 6.36076 16.896 6.37243 16.776 6.2641C15.486 5.1141 13.8243 4.48075 12.0943 4.48075C10.3643 4.48075 8.70261 5.1141 7.41261 6.2641C7.35594 6.3141 7.28762 6.33909 7.21762 6.33909Z" fill="#595959" stroke="#595959" stroke-width="0.3"/>
<path d="M12.0925 20.3125C10.1858 20.3125 8.36079 19.6058 6.95411 18.3208C6.83411 18.2125 6.82576 18.0258 6.93576 17.9075C7.0441 17.7875 7.23076 17.7791 7.3491 17.8891C8.64743 19.0741 10.3325 19.7275 12.0925 19.7275C13.8525 19.7275 15.5375 19.0741 16.8358 17.8891C16.9558 17.7808 17.1408 17.7891 17.2492 17.9075C17.3575 18.0275 17.3491 18.2125 17.2308 18.3208C15.8241 19.6058 13.9992 20.3125 12.0925 20.3125Z" fill="#595959" stroke="#595959" stroke-width="0.3"/>
<path d="M8.65908 6.6775H6.85239C6.76406 6.6775 6.68075 6.63749 6.62575 6.56916C6.57075 6.50083 6.5474 6.41083 6.56573 6.32583L6.93072 4.54416C6.96239 4.38582 7.1174 4.28249 7.27573 4.31582C7.43407 4.34749 7.53575 4.5025 7.50409 4.66084L7.21075 6.09083H8.65908C8.82075 6.09083 8.95242 6.2225 8.95242 6.38416C8.95242 6.54583 8.82075 6.6775 8.65908 6.6775Z" fill="#595959" stroke="#595959" stroke-width="0.3"/>
<path d="M16.986 19.9191C16.966 19.9191 16.946 19.9175 16.9277 19.9125C16.7693 19.8808 16.6676 19.7258 16.6993 19.5674L16.9926 18.1375H15.5443C15.3826 18.1375 15.251 18.0058 15.251 17.8441C15.251 17.6824 15.3826 17.5508 15.5443 17.5508H17.351C17.4393 17.5508 17.5226 17.5908 17.5776 17.6591C17.6326 17.7275 17.656 17.8174 17.6376 17.9024L17.2726 19.6841C17.2443 19.8224 17.1226 19.9191 16.986 19.9191Z" fill="#595959" stroke="#595959" stroke-width="0.3"/>
</svg>
