<svg width="24" height="24" viewBox="0 0 24 24" fill="none" xmlns="http://www.w3.org/2000/svg">
<rect width="24" height="24" fill="white" style="mix-blend-mode:multiply"/>
<path d="M21 21H19.7143V17.7857C19.7133 16.9335 19.3744 16.1165 18.7718 15.5139C18.1692 14.9114 17.3522 14.5724 16.5 14.5714V13.2857C17.6931 13.287 18.8369 13.7616 19.6805 14.6052C20.5241 15.4488 20.9987 16.5926 21 17.7857V21Z" fill="#595959"/>
<path d="M15.8571 21H14.5714V17.7857C14.5704 16.9335 14.2315 16.1166 13.6289 15.514C13.0263 14.9114 12.2093 14.5724 11.3571 14.5714H7.5C6.64783 14.5724 5.83084 14.9114 5.22827 15.514C4.62569 16.1166 4.28672 16.9335 4.28571 17.7857V21H3V17.7857C3.0014 16.5927 3.47595 15.4489 4.31956 14.6053C5.16317 13.7617 6.30695 13.2871 7.5 13.2857H11.3571C12.5502 13.2871 13.694 13.7617 14.5376 14.6053C15.3812 15.4489 15.8557 16.5927 15.8571 17.7857V21Z" fill="#595959"/>
<path d="M14.5714 3V4.28571C15.4239 4.28571 16.2415 4.62436 16.8443 5.22716C17.4471 5.82995 17.7857 6.64752 17.7857 7.5C17.7857 8.35248 17.4471 9.17005 16.8443 9.77284C16.2415 10.3756 15.4239 10.7143 14.5714 10.7143V12C15.7649 12 16.9095 11.5259 17.7534 10.682C18.5973 9.83807 19.0714 8.69347 19.0714 7.5C19.0714 6.30653 18.5973 5.16193 17.7534 4.31802C16.9095 3.47411 15.7649 3 14.5714 3Z" fill="#595959"/>
<path d="M9.42857 4.28571C10.0643 4.28571 10.6857 4.47423 11.2143 4.82742C11.7429 5.18061 12.1549 5.68261 12.3982 6.26995C12.6415 6.85728 12.7051 7.50357 12.5811 8.12708C12.4571 8.75059 12.1509 9.32332 11.7014 9.77284C11.2519 10.2224 10.6792 10.5285 10.0556 10.6525C9.43214 10.7765 8.78585 10.7129 8.19852 10.4696C7.61118 10.2263 7.10918 9.81435 6.75599 9.28576C6.4028 8.75717 6.21429 8.13573 6.21429 7.5C6.21429 6.64752 6.55293 5.82995 7.15573 5.22716C7.75852 4.62436 8.57609 4.28571 9.42857 4.28571ZM9.42857 3C8.53856 3 7.66853 3.26392 6.92851 3.75839C6.18848 4.25285 5.61171 4.95566 5.27111 5.77792C4.93052 6.60019 4.8414 7.50499 5.01504 8.37791C5.18867 9.25082 5.61725 10.0526 6.24659 10.682C6.87593 11.3113 7.67775 11.7399 8.55066 11.9135C9.42358 12.0872 10.3284 11.9981 11.1506 11.6575C11.9729 11.3169 12.6757 10.7401 13.1702 10.0001C13.6647 9.26004 13.9286 8.39002 13.9286 7.5C13.9286 6.30653 13.4545 5.16193 12.6106 4.31802C11.7666 3.47411 10.622 3 9.42857 3Z" fill="#595959"/>
</svg>
