<svg width="17" height="17" viewBox="0 0 17 17" fill="none" xmlns="http://www.w3.org/2000/svg">
<path d="M9.83366 1.83331H4.50033C4.1467 1.83331 3.80756 1.97379 3.55752 2.22384C3.30747 2.47389 3.16699 2.81302 3.16699 3.16665V13.8333C3.16699 14.1869 3.30747 14.5261 3.55752 14.7761C3.80756 15.0262 4.1467 15.1666 4.50033 15.1666H12.5003C12.8539 15.1666 13.1931 15.0262 13.4431 14.7761C13.6932 14.5261 13.8337 14.1869 13.8337 13.8333V5.83331L9.83366 1.83331Z" stroke="#2F54EB" stroke-width="0.7" stroke-linecap="round" stroke-linejoin="round"/>
<path d="M9.83301 1.83331V5.83331H13.833" stroke="#2F54EB" stroke-width="0.7" stroke-linecap="round" stroke-linejoin="round"/>
<path d="M10.2327 7.83331L9.69759 8.39398M9.69759 8.39398L10.5003 9.23497L9.5638 10.2161L8.76107 9.37514M9.69759 8.39398L8.76107 9.37514M7.66133 10.5273C7.79949 10.6701 7.90932 10.8402 7.9845 11.0276C8.05967 11.2151 8.09871 11.4163 8.09936 11.6197C8.10001 11.823 8.06226 12.0245 7.98828 12.2125C7.91431 12.4005 7.80557 12.5713 7.66832 12.7151C7.53108 12.8588 7.36804 12.9728 7.1886 13.0503C7.00916 13.1278 6.81685 13.1673 6.62276 13.1666C6.42867 13.166 6.23662 13.1251 6.05768 13.0463C5.87874 12.9675 5.71643 12.8525 5.58011 12.7077C5.31203 12.4169 5.16369 12.0275 5.16705 11.6232C5.1704 11.2189 5.32518 10.8322 5.59804 10.5464C5.8709 10.2605 6.24001 10.0983 6.62588 10.0948C7.01175 10.0913 7.3835 10.2467 7.66106 10.5276L7.66133 10.5273ZM7.66133 10.5273L8.76107 9.37514" stroke="#2F54EB" stroke-width="0.7" stroke-linecap="round" stroke-linejoin="round"/>
</svg>
